<svg version="1.1" xmlns="http://www.w3.org/2000/svg" viewBox="0 0 652.6542437929847 382.82178999154326" width="652.6542437929847" height="382.82178999154326">
  <!-- svg-source:excalidraw -->
  
  <defs>
    <style class="style-fonts">
      @font-face {
        font-family: "Virgil";
        src: url("https://excalidraw.com/Virgil.woff2");
      }
      @font-face {
        font-family: "Cascadia";
        src: url("https://excalidraw.com/Cascadia.woff2");
      }
      @font-face {
        font-family: "Assistant";
        src: url("https://excalidraw.com/Assistant-Regular.woff2");
      }
    </style>
    
  </defs>
  <rect x="0" y="0" width="652.6542437929847" height="382.82178999154326" fill="#ffffff"></rect><g stroke-linecap="round" transform="translate(63.41202534645936 10) rotate(0 68.64015853452815 30)"><path d="M0 0 L137.28 0 L137.28 60 L0 60" stroke="none" stroke-width="0" fill="#fff"></path><path d="M0 0 C48.92 0, 97.84 0, 137.28 0 M0 0 C49.11 0, 98.22 0, 137.28 0 M137.28 0 C137.28 12.53, 137.28 25.05, 137.28 60 M137.28 0 C137.28 19.66, 137.28 39.32, 137.28 60 M137.28 60 C85.14 60, 33 60, 0 60 M137.28 60 C90.24 60, 43.19 60, 0 60 M0 60 C0 47.18, 0 34.36, 0 0 M0 60 C0 46.4, 0 32.79, 0 0" stroke="#000000" stroke-width="1" fill="none"></path></g><g transform="translate(88.93551899451268 15) rotate(0 43.11666488647461 25)"><text x="43.11666488647461" y="0" font-family="Virgil, Segoe UI Emoji" font-size="20px" fill="#1e1e1e" text-anchor="middle" style="white-space: pre;" direction="ltr" dominant-baseline="text-before-edge">Schema </text><text x="43.11666488647461" y="25" font-family="Virgil, Segoe UI Emoji" font-size="20px" fill="#1e1e1e" text-anchor="middle" style="white-space: pre;" direction="ltr" dominant-baseline="text-before-edge">definition</text></g><g stroke-linecap="round" transform="translate(70.59018766262898 100.00134542378714) rotate(0 61.46199621835831 30)"><path d="M-1.97 -0.7 L122.29 -0.77 L123.13 61.92 L-0.79 58.92" stroke="none" stroke-width="0" fill="#ffec99"></path><path d="M0 0 C37.08 1.27, 75.34 -0.43, 122.92 0 M0 0 C37.52 -0.53, 76.52 -0.96, 122.92 0 M122.92 0 C122.49 16.26, 123.67 28.25, 122.92 60 M122.92 0 C122.8 22, 122.53 43.47, 122.92 60 M122.92 60 C90.57 60.95, 54.9 60.61, 0 60 M122.92 60 C83.19 59.82, 43.24 59.24, 0 60 M0 60 C1.98 39, 0.93 20.73, 0 0 M0 60 C-0.45 41.15, -1.28 21.28, 0 0" stroke="#000000" stroke-width="4" fill="none"></path></g><g transform="translate(98.1938502933408 105.00134542378714) rotate(0 33.858333587646484 25)"><text x="33.858333587646484" y="0" font-family="Virgil, Segoe UI Emoji" font-size="20px" fill="#1e1e1e" text-anchor="middle" style="white-space: pre;" direction="ltr" dominant-baseline="text-before-edge">DIT </text><text x="33.858333587646484" y="25" font-family="Virgil, Segoe UI Emoji" font-size="20px" fill="#1e1e1e" text-anchor="middle" style="white-space: pre;" direction="ltr" dominant-baseline="text-before-edge">schema</text></g><g stroke-linecap="round" transform="translate(70.59018766262898 165.86351846645334) rotate(0 61.46199621835831 30)"><path d="M-0.64 -0.77 L123.13 1.92 L122.13 58.92 L1.8 61.89" stroke="none" stroke-width="0" fill="#ffd43b"></path><path d="M0 0 C29.5 -1.52, 57.88 -1.32, 122.92 0 M0 0 C39.73 -0.38, 79.43 0.09, 122.92 0 M122.92 0 C123.68 16.93, 124.06 36.3, 122.92 60 M122.92 0 C122.48 18.01, 122.57 36.05, 122.92 60 M122.92 60 C75.94 59.77, 32.06 60.23, 0 60 M122.92 60 C93.04 60.54, 63.21 60.3, 0 60 M0 60 C0.2 39.93, -0.13 18.57, 0 0 M0 60 C-0.8 39.43, -1.03 19.05, 0 0" stroke="#000000" stroke-width="4" fill="none"></path></g><g transform="translate(95.2938487674619 170.86351846645334) rotate(0 36.75833511352539 25)"><text x="36.75833511352539" y="0" font-family="Virgil, Segoe UI Emoji" font-size="20px" fill="#1e1e1e" text-anchor="middle" style="white-space: pre;" direction="ltr" dominant-baseline="text-before-edge">Object </text><text x="36.75833511352539" y="25" font-family="Virgil, Segoe UI Emoji" font-size="20px" fill="#1e1e1e" text-anchor="middle" style="white-space: pre;" direction="ltr" dominant-baseline="text-before-edge">Class</text></g><g stroke-linecap="round" transform="translate(70.59018766262898 232.80227332852542) rotate(0 61.46199621835831 30)"><path d="M0.2 1.92 L122.13 -1.08 L124.72 61.89 L-0.04 59.76" stroke="none" stroke-width="0" fill="#fab005"></path><path d="M0 0 C39.95 -0.27, 79.92 -0.97, 122.92 0 M0 0 C33.61 0.62, 68.33 0.63, 122.92 0 M122.92 0 C124.41 22.5, 123.16 44.86, 122.92 60 M122.92 0 C122.41 20.02, 123.41 40.13, 122.92 60 M122.92 60 C86.12 60.02, 47.21 60.23, 0 60 M122.92 60 C80.22 59.58, 37.31 60.8, 0 60 M0 60 C0.19 45.56, 0.54 27.77, 0 0 M0 60 C-0.53 39.39, 0.14 19.09, 0 0" stroke="#000000" stroke-width="4" fill="none"></path></g><g transform="translate(80.8188502933408 237.80227332852542) rotate(0 51.233333587646484 25)"><text x="51.233333587646484" y="0" font-family="Virgil, Segoe UI Emoji" font-size="20px" fill="#1e1e1e" text-anchor="middle" style="white-space: pre;" direction="ltr" dominant-baseline="text-before-edge">Attribute </text><text x="51.233333587646484" y="25" font-family="Virgil, Segoe UI Emoji" font-size="20px" fill="#1e1e1e" text-anchor="middle" style="white-space: pre;" direction="ltr" dominant-baseline="text-before-edge">Type</text></g><g stroke-linecap="round" transform="translate(70.59018766262898 301.1595730023787) rotate(0 61.46199621835831 30)"><path d="M-0.79 -1.08 L124.72 1.89 L122.88 59.76 L-1.95 61.92" stroke="none" stroke-width="0" fill="#f08c00"></path><path d="M0 0 C29.76 -1.1, 58.06 0.13, 122.92 0 M0 0 C28.91 0.06, 58.52 0.65, 122.92 0 M122.92 0 C123.27 14.05, 123.9 27.78, 122.92 60 M122.92 0 C123.47 19, 122.79 36.34, 122.92 60 M122.92 60 C86.6 60.51, 53.52 60.45, 0 60 M122.92 60 C87.65 60.5, 50.87 59.98, 0 60 M0 60 C0.64 37.6, 0.63 13.39, 0 0 M0 60 C0.27 43.25, 0.69 28.22, 0 0" stroke="#000000" stroke-width="4" fill="none"></path></g><g transform="translate(80.8188502933408 306.1595730023787) rotate(0 51.233333587646484 25)"><text x="51.233333587646484" y="0" font-family="Virgil, Segoe UI Emoji" font-size="20px" fill="#1e1e1e" text-anchor="middle" style="white-space: pre;" direction="ltr" dominant-baseline="text-before-edge">Attribute </text><text x="51.233333587646484" y="25" font-family="Virgil, Segoe UI Emoji" font-size="20px" fill="#1e1e1e" text-anchor="middle" style="white-space: pre;" direction="ltr" dominant-baseline="text-before-edge">Syntax</text></g><g stroke-linecap="round" transform="translate(393.9641700254251 30.50417438798104) rotate(0 68.64015853452815 17.5)"><path d="M0 0 L137.28 0 L137.28 35 L0 35" stroke="none" stroke-width="0" fill="#fff"></path><path d="M0 0 C39.87 0, 79.73 0, 137.28 0 M0 0 C42.8 0, 85.6 0, 137.28 0 M137.28 0 C137.28 8.23, 137.28 16.46, 137.28 35 M137.28 0 C137.28 12.66, 137.28 25.32, 137.28 35 M137.28 35 C97.75 35, 58.23 35, 0 35 M137.28 35 C94.68 35, 52.07 35, 0 35 M0 35 C0 27.9, 0 20.81, 0 0 M0 35 C0 26.52, 0 18.03, 0 0" stroke="#000000" stroke-width="1" fill="none"></path></g><g transform="translate(400.62933008583195 35.50417438798104) rotate(0 61.974998474121094 12.5)"><text x="61.974998474121094" y="0" font-family="Virgil, Segoe UI Emoji" font-size="20px" fill="#1e1e1e" text-anchor="middle" style="white-space: pre;" direction="ltr" dominant-baseline="text-before-edge">DIT element</text></g><g stroke-linecap="round" transform="translate(401.1423323415952 96.43390323363337) rotate(0 61.46199621835831 22.641716698735877)"><path d="M-0.72 -1.47 L122.93 -1.25 L123.83 45.67 L1.23 45.19" stroke="none" stroke-width="0" fill="#ffec99"></path><path d="M0 0 C39.54 -2.16, 81.19 -1.46, 122.92 0 M0 0 C28.06 -0.33, 57.37 -0.14, 122.92 0 M122.92 0 C123.84 7.96, 122.45 19.82, 122.92 45.28 M122.92 0 C123.5 13.89, 121.94 27.38, 122.92 45.28 M122.92 45.28 C90.3 47.86, 60.43 45.19, 0 45.28 M122.92 45.28 C86.09 45.11, 51.62 45.59, 0 45.28 M0 45.28 C-1.83 27.95, 0.49 11.72, 0 0 M0 45.28 C-0.8 31.2, 0.28 17.94, 0 0" stroke="#000000" stroke-width="4" fill="none"></path></g><g transform="translate(441.3126625290697 106.57561993236914) rotate(0 21.29166603088379 12.5)"><text x="21.29166603088379" y="0" font-family="Virgil, Segoe UI Emoji" font-size="20px" fill="#1e1e1e" text-anchor="middle" style="white-space: pre;" direction="ltr" dominant-baseline="text-before-edge">DIT</text></g><g stroke-linecap="round" transform="translate(401.1423323415952 158.86930391994747) rotate(0 61.46199621835831 30)"><path d="M0.01 -1.25 L123.83 0.39 L124.15 59.9 L-0.01 60.86" stroke="none" stroke-width="0" fill="#ffd43b"></path><path d="M0 0 C43.58 0.05, 82.1 2.89, 122.92 0 M0 0 C38.46 0.24, 76.22 0.24, 122.92 0 M122.92 0 C122.7 15.57, 123.03 27.66, 122.92 60 M122.92 0 C122.42 24.87, 122.82 47.49, 122.92 60 M122.92 60 C76.6 60.13, 32.16 61.8, 0 60 M122.92 60 C92.24 61.33, 60.83 60.92, 0 60 M0 60 C1.18 38.26, 0.43 20.35, 0 0 M0 60 C0.94 44.52, -0.14 29.15, 0 0" stroke="#000000" stroke-width="4" fill="none"></path></g><g transform="translate(417.8793300858324 163.86930391994747) rotate(0 44.724998474121094 25)"><text x="44.724998474121094" y="0" font-family="Virgil, Segoe UI Emoji" font-size="20px" fill="#1e1e1e" text-anchor="middle" style="white-space: pre;" direction="ltr" dominant-baseline="text-before-edge">Entries </text><text x="44.724998474121094" y="25" font-family="Virgil, Segoe UI Emoji" font-size="20px" fill="#1e1e1e" text-anchor="middle" style="white-space: pre;" direction="ltr" dominant-baseline="text-before-edge">(Objects)</text></g><g stroke-linecap="round" transform="translate(401.1423323415952 232.93357178781844) rotate(0 61.46199621835831 22.641716698735877)"><path d="M0.9 0.39 L124.15 -0.1 L122.92 46.15 L-0.22 44.38" stroke="none" stroke-width="0" fill="#fab005"></path><path d="M0 0 C25.24 2.46, 53.4 -0.78, 122.92 0 M0 0 C33.9 0, 69.1 0.41, 122.92 0 M122.92 0 C122.65 10.55, 124.79 23.16, 122.92 45.28 M122.92 0 C122.02 16.28, 123.2 32.31, 122.92 45.28 M122.92 45.28 C75.26 45.44, 26.99 43.01, 0 45.28 M122.92 45.28 C81.95 46.79, 40.23 45.53, 0 45.28 M0 45.28 C-0.21 35.95, -1.14 22.04, 0 0 M0 45.28 C-0.68 33.78, -0.32 23.12, 0 0" stroke="#000000" stroke-width="4" fill="none"></path></g><g transform="translate(416.370994972307 243.0752884865542) rotate(0 46.233333587646484 12.5)"><text x="46.233333587646484" y="0" font-family="Virgil, Segoe UI Emoji" font-size="20px" fill="#1e1e1e" text-anchor="middle" style="white-space: pre;" direction="ltr" dominant-baseline="text-before-edge">Attribute</text></g><g stroke-linecap="round" transform="translate(401.1423323415952 302.93102999619964) rotate(0 61.46199621835831 22.641716698735877)"><path d="M1.23 -0.1 L122.92 0.86 L122.7 44.38 L0.54 47.18" stroke="none" stroke-width="0" fill="#f08c00"></path><path d="M0 0 C31.14 -2.52, 61.4 -1.42, 122.92 0 M0 0 C36.65 0.4, 74.05 -0.3, 122.92 0 M122.92 0 C124.86 18.43, 124.23 32.42, 122.92 45.28 M122.92 0 C123.38 16.94, 123.56 35.26, 122.92 45.28 M122.92 45.28 C90.91 44.03, 61.45 47.06, 0 45.28 M122.92 45.28 C75.89 45.02, 27.42 46.18, 0 45.28 M0 45.28 C-0.97 33.14, -1.23 23.9, 0 0 M0 45.28 C0.16 33, 0.61 22.16, 0 0" stroke="#000000" stroke-width="4" fill="none"></path></g><g transform="translate(436.98766176613026 313.0727466949354) rotate(0 25.616666793823242 12.5)"><text x="25.616666793823242" y="0" font-family="Virgil, Segoe UI Emoji" font-size="20px" fill="#1e1e1e" text-anchor="middle" style="white-space: pre;" direction="ltr" dominant-baseline="text-before-edge">Value</text></g><g mask="url(#mask-ubGrFuYjQaS70x7ReR9Il)" stroke-linecap="round"><g transform="translate(571.9599252958515 339.54379590300346) rotate(0 -1.8640158534526563 -123.02504632788566)"><path d="M-0.6 1.04 C-1.29 -39.8, -2.58 -204.36, -3.16 -245.54 M1.28 0.54 C0.4 -40.61, -2.76 -206.52, -3.81 -247.39" stroke="#1e1e1e" stroke-width="1" fill="none"></path></g><g transform="translate(571.9599252958515 339.54379590300346) rotate(0 -1.8640158534526563 -123.02504632788566)"><path d="M7.07 -219.43 C4.8 -229.14, -0.21 -241.26, -3.81 -247.39 M7.07 -219.43 C2.82 -227.84, 0.89 -236.7, -3.81 -247.39" stroke="#1e1e1e" stroke-width="1" fill="none"></path></g><g transform="translate(571.9599252958515 339.54379590300346) rotate(0 -1.8640158534526563 -123.02504632788566)"><path d="M-13.45 -218.98 C-7.94 -228.76, -5.16 -241.05, -3.81 -247.39 M-13.45 -218.98 C-11.52 -227.36, -7.27 -236.35, -3.81 -247.39" stroke="#1e1e1e" stroke-width="1" fill="none"></path></g></g><mask id="mask-ubGrFuYjQaS70x7ReR9Il"><rect x="0" y="0" fill="#fff" width="675.6879570027568" height="685.5938885587748"></rect><rect x="497.53757509181287" y="204.01874957511768" fill="#000" width="145.11666870117188" height="25" opacity="1"></rect></mask><g transform="translate(497.53757509181287 204.01874957511768) rotate(0 73.15925270710136 12.349687470514482)"><text x="72.55833435058594" y="0" font-family="Virgil, Segoe UI Emoji" font-size="20px" fill="#1e1e1e" text-anchor="middle" style="white-space: pre;" direction="ltr" dominant-baseline="text-before-edge">    depends on</text></g><g mask="url(#mask-sxYseDzYmRuCDWa9o0ENv)" stroke-linecap="round"><g transform="translate(31.39532779453566 91.00834877596185) rotate(0 0.6213386178176279 140.42252762677856)"><path d="M1.18 -0.69 C1.16 46.16, 0.83 234.74, 0.87 281.81 M0.34 1.56 C0.05 48.02, -0.34 233.81, -0.28 280.2" stroke="#1e1e1e" stroke-width="1" fill="none"></path></g><g transform="translate(31.39532779453566 91.00834877596185) rotate(0 0.6213386178176279 140.42252762677856)"><path d="M-10.52 252 C-7.61 261.99, -0.95 273.59, -0.28 280.2 M-10.52 252 C-6.41 262.47, -3.41 272.46, -0.28 280.2" stroke="#1e1e1e" stroke-width="1" fill="none"></path></g><g transform="translate(31.39532779453566 91.00834877596185) rotate(0 0.6213386178176279 140.42252762677856)"><path d="M10 252.02 C5.12 262.2, 3.98 273.79, -0.28 280.2 M10 252.02 C6.38 262.65, 1.63 272.63, -0.28 280.2" stroke="#1e1e1e" stroke-width="1" fill="none"></path></g></g><mask id="mask-sxYseDzYmRuCDWa9o0ENv"><rect x="0" y="0" fill="#fff" width="132.63800503017092" height="471.85340402951897"></rect><rect x="10" y="218.9308764027403" fill="#000" width="44.03333282470703" height="25" opacity="1"></rect></mask><g transform="translate(10 218.9308764027403) rotate(0 21.842474246755273 12.638764319196412)"><text x="22.016666412353516" y="0" font-family="Virgil, Segoe UI Emoji" font-size="20px" fill="#1e1e1e" text-anchor="middle" style="white-space: pre;" direction="ltr" dominant-baseline="text-before-edge">uses</text></g><g mask="url(#mask-TlJEkRg00WUkVAzyBpfTm)" stroke-linecap="round"><g transform="translate(214.06888143291144 217.76142681075294) rotate(0 76.42464999156527 -1.242677235635142)"><path d="M-0.68 0.38 C24.82 0.2, 127.47 -1.65, 153.2 -2.13 M1.17 -0.47 C26.52 -0.94, 127.07 -3.95, 152.43 -4.07" stroke="#1e1e1e" stroke-width="1" fill="none"></path></g><g transform="translate(214.06888143291144 217.76142681075294) rotate(0 76.42464999156527 -1.242677235635142)"><path d="M124.44 6.72 C134.12 4.01, 143.02 1.39, 152.43 -4.07 M124.44 6.72 C131.94 4.32, 141.17 0.9, 152.43 -4.07" stroke="#1e1e1e" stroke-width="1" fill="none"></path></g><g transform="translate(214.06888143291144 217.76142681075294) rotate(0 76.42464999156527 -1.242677235635142)"><path d="M124.05 -13.79 C133.68 -9.94, 142.7 -6, 152.43 -4.07 M124.05 -13.79 C131.73 -10.09, 141.07 -7.41, 152.43 -4.07" stroke="#1e1e1e" stroke-width="1" fill="none"></path></g></g><mask id="mask-TlJEkRg00WUkVAzyBpfTm"><rect x="0" y="0" fill="#fff" width="466.918181416042" height="320.2467812820232"></rect><rect x="247.27686424918375" y="204.01874957511768" fill="#000" width="86.43333435058594" height="25" opacity="1"></rect></mask><g transform="translate(247.27686424918375 204.01874957511768) rotate(0 43.05314800478527 11.89711044994192)"><text x="43.21666717529297" y="0" font-family="Virgil, Segoe UI Emoji" font-size="20px" fill="#1e1e1e" text-anchor="middle" style="white-space: pre;" direction="ltr" dominant-baseline="text-before-edge">rules for</text></g></svg>