<?xml version="1.0" encoding="UTF-8" standalone="no"?>
<!-- Created with Inkscape (http://www.inkscape.org/) -->

<svg
   version="1.1"
   id="svg39"
   xml:space="preserve"
   width="300"
   height="168"
   viewBox="0 0 300 168"
   sodipodi:docname="ldap.svg"
   inkscape:version="1.1.2 (0a00cf5339, 2022-02-04)"
   xmlns:inkscape="http://www.inkscape.org/namespaces/inkscape"
   xmlns:sodipodi="http://sodipodi.sourceforge.net/DTD/sodipodi-0.dtd"
   xmlns="http://www.w3.org/2000/svg"
   xmlns:svg="http://www.w3.org/2000/svg"><defs
     id="defs43" /><sodipodi:namedview
     id="namedview41"
     pagecolor="#ffffff"
     bordercolor="#666666"
     borderopacity="1.0"
     inkscape:pageshadow="2"
     inkscape:pageopacity="0.0"
     inkscape:pagecheckerboard="0"
     showgrid="false"
     inkscape:zoom="3.5733333"
     inkscape:cx="150"
     inkscape:cy="84.095149"
     inkscape:window-width="1850"
     inkscape:window-height="1016"
     inkscape:window-x="0"
     inkscape:window-y="0"
     inkscape:window-maximized="1"
     inkscape:current-layer="g47" /><g
     id="g45"
     inkscape:groupmode="layer"
     inkscape:label="ldap"
     transform="matrix(1.3333333,0,0,1.3333333,0,4.2e-6)"
     style="display:inline"><g
       id="g47"
       transform="translate(5.4242943,-2.6268805)"
       style="display:inline"><path
         d="M 86.973,110.852 C 75.016,103.992 64.602,97.809 63.832,97.113 c -0.77,-0.695 -2.039,-2.519 -2.82,-4.051 -1.313,-2.57 -1.422,-4.746 -1.422,-28.71 0,-28.176 0.098,-28.922 4.222,-32.762 1.184,-1.106 4.18,-3.164 6.653,-4.574 2.476,-1.411 11.418,-6.551 19.875,-11.422 16.383,-9.438 20.457,-11.156 24.707,-10.43 3.453,0.59 44.601,23.918 47.762,27.078 3.761,3.758 4.16,7.313 3.89,34.516 -0.254,25.746 -0.304,26.086 -4.515,30.019 -0.993,0.926 -11.235,7.137 -22.762,13.801 -20.305,11.742 -21.11,12.125 -25.832,12.43 l -4.875,0.312 z m 21.851,-17.45 c 2.946,-0.105 6.649,-0.73 8.223,-1.386 1.961,-0.821 2.953,-0.938 3.144,-0.371 0.407,1.218 2.399,1.007 2.399,-0.254 0,-0.594 -0.317,-1.278 -0.707,-1.516 -0.387,-0.242 0.035,-1.211 0.937,-2.152 1.039,-1.082 1.969,-1.477 2.516,-1.071 1.316,0.973 1.848,-0.515 0.73,-2.047 -1.191,-1.625 -0.699,-4.882 0.739,-4.882 0.57,0 1.035,-0.508 1.035,-1.125 0,-0.621 -0.469,-1.125 -1.043,-1.125 -0.985,0 -1.957,-1.524 -1.957,-3.063 0,-0.379 0.535,-0.687 1.187,-0.687 1.758,0 0.84,-1.836 -1.058,-2.118 -0.922,-0.132 -1.637,-0.785 -1.645,-1.5 -0.008,-0.691 -0.695,-2.75 -1.523,-4.578 -1.09,-2.398 -1.266,-3.465 -0.637,-3.851 1.258,-0.778 0.109,-2.203 -1.769,-2.203 -1.247,0 -1.403,-0.2 -0.704,-0.903 1.422,-1.422 1.063,-2.093 -1.164,-2.156 -1.132,-0.035 -1.64,-0.23 -1.125,-0.437 1.414,-0.571 1.125,-2.504 -0.375,-2.516 -1.125,-0.012 -1.152,-0.117 -0.187,-0.766 0.972,-0.652 0.93,-0.902 -0.328,-1.863 -1.422,-1.082 -1.414,-1.152 0.468,-3.172 3.872,-4.148 4.11,-5.594 1.434,-8.711 -0.66,-0.769 -1.199,-2.117 -1.199,-3 0,-0.926 -0.477,-1.601 -1.125,-1.601 -0.629,0 -1.074,0.601 -1.012,1.359 0.102,1.242 0,1.258 -1.183,0.188 -1.641,-1.485 -3.055,-1.508 -3.055,-0.047 0,0.617 -0.442,1.125 -0.985,1.125 -1.222,0 -5.015,3.875 -5.015,5.129 0,0.507 -0.508,1.699 -1.129,2.644 -1.258,1.922 -0.973,11.422 0.383,12.781 0.41,0.411 0.746,1.313 0.746,2.004 0,0.692 0.472,1.649 1.047,2.125 0.578,0.481 0.883,1.512 0.675,2.297 -0.207,0.785 0.563,3.391 1.708,5.785 2.832,5.926 3.21,10.2 1.046,11.715 -0.941,0.66 -2.746,1.039 -4.277,0.895 -5.883,-0.547 -8.484,6.566 -3.836,10.48 1.301,1.094 2.567,1.715 2.813,1.379 0.246,-0.336 2.859,-0.695 5.808,-0.805 z"
         style="display:inline;fill:#73a740;fill-opacity:1;fill-rule:nonzero;stroke:none"
         id="path55" /></g></g></svg>
